<?xml version="1.0" encoding="UTF-8" standalone="no"?><svg xmlns="http://www.w3.org/2000/svg" xmlns:xlink="http://www.w3.org/1999/xlink" clip-rule="evenodd" stroke-miterlimit="10" viewBox="0 0 168 25"><desc>SVG generated by Keynote</desc><defs></defs><g transform="matrix(1.00, 0.00, -0.00, -1.00, 0.0, 25.0)"><text xml:space="preserve" font-family="Helvetica-Light,Helvetica" font-size="22.0" fill="#000000" transform="matrix(1.00, 0.00, -0.00, -1.00, -0.6, 6.7)">1</text><text xml:space="preserve" font-family="Helvetica-Light,Helvetica" font-size="22.0" fill="#000000" transform="matrix(1.00, 0.00, -0.00, -1.00, 11.6, 6.7)"> </text><text xml:space="preserve" font-family="Helvetica-Light,Helvetica" font-size="22.0" fill="#000000" transform="matrix(1.00, 0.00, -0.00, -1.00, 17.7, 6.7)">E</text><text xml:space="preserve" font-family="Helvetica-Light,Helvetica" font-size="22.0" fill="#000000" transform="matrix(1.00, 0.00, -0.00, -1.00, 31.1, 6.7)">x</text><text xml:space="preserve" font-family="Helvetica-Light,Helvetica" font-size="22.0" fill="#000000" transform="matrix(1.00, 0.00, -0.00, -1.00, 42.1, 6.7)">a</text><text xml:space="preserve" font-family="Helvetica-Light,Helvetica" font-size="22.0" fill="#000000" transform="matrix(1.00, 0.00, -0.00, -1.00, 54.4, 6.7)">m</text><text xml:space="preserve" font-family="Helvetica-Light,Helvetica" font-size="22.0" fill="#000000" transform="matrix(1.00, 0.00, -0.00, -1.00, 72.7, 6.7)">p</text><text xml:space="preserve" font-family="Helvetica-Light,Helvetica" font-size="22.0" fill="#000000" transform="matrix(1.00, 0.00, -0.00, -1.00, 86.1, 6.7)">l</text><text xml:space="preserve" font-family="Helvetica-Light,Helvetica" font-size="22.0" fill="#000000" transform="matrix(1.00, 0.00, -0.00, -1.00, 91.0, 6.7)">e</text><text xml:space="preserve" font-family="Helvetica-Light,Helvetica" font-size="22.0" fill="#000000" transform="matrix(1.00, 0.00, -0.00, -1.00, 103.3, 6.7)"> </text><text xml:space="preserve" font-family="Helvetica-Light,Helvetica" font-size="22.0" fill="#000000" transform="matrix(1.00, 0.00, -0.00, -1.00, 109.4, 6.7)">S</text><text xml:space="preserve" font-family="Helvetica-Light,Helvetica" font-size="22.0" fill="#000000" transform="matrix(1.00, 0.00, -0.00, -1.00, 122.8, 6.7)">t</text><text xml:space="preserve" font-family="Helvetica-Light,Helvetica" font-size="22.0" fill="#000000" transform="matrix(1.00, 0.00, -0.00, -1.00, 128.9, 6.7)">r</text><text xml:space="preserve" font-family="Helvetica-Light,Helvetica" font-size="22.0" fill="#000000" transform="matrix(1.00, 0.00, -0.00, -1.00, 135.9, 6.7)">e</text><text xml:space="preserve" font-family="Helvetica-Light,Helvetica" font-size="22.0" fill="#000000" transform="matrix(1.00, 0.00, -0.00, -1.00, 148.1, 6.7)">e</text><text xml:space="preserve" font-family="Helvetica-Light,Helvetica" font-size="22.0" fill="#000000" transform="matrix(1.00, 0.00, -0.00, -1.00, 160.3, 6.7)">t</text></g></svg>