<?xml version="1.0" encoding="UTF-8" standalone="no"?><svg xmlns="http://www.w3.org/2000/svg" xmlns:xlink="http://www.w3.org/1999/xlink" clip-rule="evenodd" stroke-miterlimit="10" viewBox="0 0 138 22"><desc>SVG generated by Keynote</desc><defs></defs><g transform="matrix(1.00, 0.00, -0.00, -1.00, 0.0, 22.0)"><text xml:space="preserve" font-family="Helvetica-Light,Helvetica" font-size="20.0" fill="#000000" transform="matrix(1.00, 0.00, -0.00, -1.00, 1.3, 5.8)">A</text><text xml:space="preserve" font-family="Helvetica-Light,Helvetica" font-size="20.0" fill="#000000" transform="matrix(1.00, 0.00, -0.00, -1.00, 14.6, 5.8)">d</text><text xml:space="preserve" font-family="Helvetica-Light,Helvetica" font-size="20.0" fill="#000000" transform="matrix(1.00, 0.00, -0.00, -1.00, 26.8, 5.8)">d</text><text xml:space="preserve" font-family="Helvetica-Light,Helvetica" font-size="20.0" fill="#000000" transform="matrix(1.00, 0.00, -0.00, -1.00, 39.0, 5.8)"> </text><text xml:space="preserve" font-family="Helvetica-Light,Helvetica" font-size="20.0" fill="#000000" transform="matrix(1.00, 0.00, -0.00, -1.00, 44.6, 5.8)">m</text><text xml:space="preserve" font-family="Helvetica-Light,Helvetica" font-size="20.0" fill="#000000" transform="matrix(1.00, 0.00, -0.00, -1.00, 61.3, 5.8)">y</text><text xml:space="preserve" font-family="Helvetica-Light,Helvetica" font-size="20.0" fill="#000000" transform="matrix(1.00, 0.00, -0.00, -1.00, 71.3, 5.8)"> </text><text xml:space="preserve" font-family="Helvetica-Light,Helvetica" font-size="20.0" fill="#000000" transform="matrix(1.00, 0.00, -0.00, -1.00, 76.8, 5.8)">s</text><text xml:space="preserve" font-family="Helvetica-Light,Helvetica" font-size="20.0" fill="#000000" transform="matrix(1.00, 0.00, -0.00, -1.00, 86.8, 5.8)">c</text><text xml:space="preserve" font-family="Helvetica-Light,Helvetica" font-size="20.0" fill="#000000" transform="matrix(1.00, 0.00, -0.00, -1.00, 97.9, 5.8)">h</text><text xml:space="preserve" font-family="Helvetica-Light,Helvetica" font-size="20.0" fill="#000000" transform="matrix(1.00, 0.00, -0.00, -1.00, 109.1, 5.8)">o</text><text xml:space="preserve" font-family="Helvetica-Light,Helvetica" font-size="20.0" fill="#000000" transform="matrix(1.00, 0.00, -0.00, -1.00, 120.2, 5.8)">o</text><text xml:space="preserve" font-family="Helvetica-Light,Helvetica" font-size="20.0" fill="#000000" transform="matrix(1.00, 0.00, -0.00, -1.00, 131.3, 5.8)">l</text></g></svg>