<?xml version="1.0" encoding="UTF-8" standalone="no"?><svg xmlns="http://www.w3.org/2000/svg" xmlns:xlink="http://www.w3.org/1999/xlink" clip-rule="evenodd" stroke-miterlimit="10" viewBox="0 0 320 70"><desc>SVG generated by Keynote</desc><defs></defs><g transform="matrix(1.00, 0.00, -0.00, -1.00, 0.0, 70.0)"><g><clipPath id="clip0x6000032b40a0"><path d="M 0.0 0.0 L 320.0 0.0 L 320.0 70.0 L 0.0 70.0 Z M 0.0 0.0 "></path></clipPath><g clip-path="url(#clip0x6000032b40a0)"><text xml:space="preserve" font-family="Helvetica-Light,Helvetica" font-size="70.1" fill="#6FBF40" transform="matrix(1.00, 0.00, -0.00, -1.00, -3.6, 15.6)">M</text><text xml:space="preserve" font-family="Helvetica-Light,Helvetica" font-size="70.1" fill="#6FBF40" transform="matrix(1.00, 0.00, -0.00, -1.00, 54.8, 15.6)">y</text><text xml:space="preserve" font-family="Helvetica-Light,Helvetica" font-size="70.1" fill="#6FBF40" transform="matrix(1.00, 0.00, -0.00, -1.00, 89.8, 15.6)"> </text><text xml:space="preserve" font-family="Helvetica-Light,Helvetica" font-size="70.1" fill="#6FBF40" transform="matrix(1.00, 0.00, -0.00, -1.00, 109.3, 15.6)">S</text><text xml:space="preserve" font-family="Helvetica-Light,Helvetica" font-size="70.1" fill="#6FBF40" transform="matrix(1.00, 0.00, -0.00, -1.00, 152.2, 15.6)">c</text><text xml:space="preserve" font-family="Helvetica-Light,Helvetica" font-size="70.1" fill="#6FBF40" transform="matrix(1.00, 0.00, -0.00, -1.00, 191.1, 15.6)">h</text><text xml:space="preserve" font-family="Helvetica-Light,Helvetica" font-size="70.1" fill="#6FBF40" transform="matrix(1.00, 0.00, -0.00, -1.00, 230.1, 15.6)">o</text><text xml:space="preserve" font-family="Helvetica-Light,Helvetica" font-size="70.1" fill="#6FBF40" transform="matrix(1.00, 0.00, -0.00, -1.00, 269.0, 15.6)">o</text><text xml:space="preserve" font-family="Helvetica-Light,Helvetica" font-size="70.1" fill="#6FBF40" transform="matrix(1.00, 0.00, -0.00, -1.00, 308.0, 15.6)">l</text></g></g></g></svg>