<?xml version="1.0" encoding="UTF-8" standalone="no"?><svg xmlns="http://www.w3.org/2000/svg" xmlns:xlink="http://www.w3.org/1999/xlink" clip-rule="evenodd" stroke-miterlimit="10" viewBox="0 0 83 81"><desc>SVG generated by Keynote</desc><defs></defs><g transform="matrix(1.00, 0.00, -0.00, -1.00, 0.0, 81.0)"><g><clipPath id="clip0x6000032bdd00"><path d="M 0.3 0.8 L 82.6 0.8 L 82.6 80.5 L 0.3 80.5 Z M 0.3 0.8 "></path></clipPath><g clip-path="url(#clip0x6000032bdd00)"><image xlink:href="../../0099E750-43F4-4A1E-80C1-2076B752852F/assets/D870961ECA0D32F3AD16812E46DF1AF4.png" width="80.00" height="78.00" transform="matrix(1.00, 0.00, -0.00, -1.00, 1.3, 79.5)" opacity="0.50"></image><path d="M 69.8 68.2 C 85.5 53.0 85.5 28.3 69.8 13.2 C 54.2 -2.0 28.8 -2.0 13.1 13.2 C -2.6 28.3 -2.6 53.0 13.1 68.2 C 28.8 83.3 54.2 83.3 69.8 68.2 Z M 69.8 68.2 " fill="#EB5C56"></path></g></g><g><clipPath id="clip0x6000032be300"><path d="M 18.0 18.0 L 64.9 18.0 L 64.9 63.3 L 18.0 63.3 Z M 18.0 18.0 "></path></clipPath><g clip-path="url(#clip0x6000032be300)"><image xlink:href="../../0099E750-43F4-4A1E-80C1-2076B752852F/assets/E1ED57FC234FF4F27B1C781EF218B3E8.png" width="192.00" height="186.00" transform="matrix(0.24, 0.00, -0.00, -0.24, 18.0, 63.3)"></image></g></g></g></svg>