<?xml version="1.0" encoding="UTF-8" standalone="no"?><svg xmlns="http://www.w3.org/2000/svg" xmlns:xlink="http://www.w3.org/1999/xlink" clip-rule="evenodd" stroke-miterlimit="10" viewBox="0 0 350 45"><desc>SVG generated by Keynote</desc><defs></defs><g transform="matrix(1.00, 0.00, -0.00, -1.00, 0.0, 45.0)"><path d="M 1.0 44.0 L 349.0 44.0 L 349.0 1.0 L 1.0 1.0 Z M 1.2 43.6 " fill="#DCDDE0"></path><g><clipPath id="clip0x600003cbe9c0"><path d="M -3.2 1.2 L 352.9 1.2 L 352.9 43.6 L -3.2 43.6 Z M -3.2 1.2 "></path></clipPath><g clip-path="url(#clip0x600003cbe9c0)"><text xml:space="preserve" font-family="Helvetica-Light,Helvetica" font-size="22.0" fill="#52575F" transform="matrix(1.00, 0.00, -0.00, -1.00, 137.0, 14.5)">S</text><text xml:space="preserve" font-family="Helvetica-Light,Helvetica" font-size="22.0" fill="#52575F" transform="matrix(1.00, 0.00, -0.00, -1.00, 150.4, 14.5)">i</text><text xml:space="preserve" font-family="Helvetica-Light,Helvetica" font-size="22.0" fill="#52575F" transform="matrix(1.00, 0.00, -0.00, -1.00, 155.3, 14.5)">g</text><text xml:space="preserve" font-family="Helvetica-Light,Helvetica" font-size="22.0" fill="#52575F" transform="matrix(1.00, 0.00, -0.00, -1.00, 168.7, 14.5)">n</text><text xml:space="preserve" font-family="Helvetica-Light,Helvetica" font-size="22.0" fill="#52575F" transform="matrix(1.00, 0.00, -0.00, -1.00, 181.0, 14.5)"> </text><text xml:space="preserve" font-family="Helvetica-Light,Helvetica" font-size="22.0" fill="#52575F" transform="matrix(1.00, 0.00, -0.00, -1.00, 187.1, 14.5)">u</text><text xml:space="preserve" font-family="Helvetica-Light,Helvetica" font-size="22.0" fill="#52575F" transform="matrix(1.00, 0.00, -0.00, -1.00, 199.3, 14.5)">p</text></g></g></g></svg>