<?xml version="1.0" encoding="UTF-8" standalone="no"?><svg xmlns="http://www.w3.org/2000/svg" xmlns:xlink="http://www.w3.org/1999/xlink" clip-rule="evenodd" stroke-miterlimit="10" viewBox="0 0 227 21"><desc>SVG generated by Keynote</desc><defs></defs><g transform="matrix(1.00, 0.00, -0.00, -1.00, 0.0, 21.0)"><text xml:space="preserve" font-family="Helvetica-Light,Helvetica" font-size="18.7" fill="#000000" transform="matrix(1.00, 0.00, -0.00, -1.00, 1.2, 5.6)">W</text><text xml:space="preserve" font-family="Helvetica-Light,Helvetica" font-size="18.7" fill="#000000" transform="matrix(1.00, 0.00, -0.00, -1.00, 17.8, 5.6)">h</text><text xml:space="preserve" font-family="Helvetica-Light,Helvetica" font-size="18.7" fill="#000000" transform="matrix(1.00, 0.00, -0.00, -1.00, 28.2, 5.6)">a</text><text xml:space="preserve" font-family="Helvetica-Light,Helvetica" font-size="18.7" fill="#000000" transform="matrix(1.00, 0.00, -0.00, -1.00, 38.6, 5.6)">t</text><text xml:space="preserve" font-family="Helvetica-Light,Helvetica" font-size="18.7" fill="#000000" transform="matrix(1.00, 0.00, -0.00, -1.00, 43.8, 5.6)"> </text><text xml:space="preserve" font-family="Helvetica-Light,Helvetica" font-size="18.7" fill="#000000" transform="matrix(1.00, 0.00, -0.00, -1.00, 49.0, 5.6)">w</text><text xml:space="preserve" font-family="Helvetica-Light,Helvetica" font-size="18.7" fill="#000000" transform="matrix(1.00, 0.00, -0.00, -1.00, 62.5, 5.6)">o</text><text xml:space="preserve" font-family="Helvetica-Light,Helvetica" font-size="18.7" fill="#000000" transform="matrix(1.00, 0.00, -0.00, -1.00, 72.9, 5.6)">u</text><text xml:space="preserve" font-family="Helvetica-Light,Helvetica" font-size="18.7" fill="#000000" transform="matrix(1.00, 0.00, -0.00, -1.00, 83.4, 5.6)">l</text><text xml:space="preserve" font-family="Helvetica-Light,Helvetica" font-size="18.7" fill="#000000" transform="matrix(1.00, 0.00, -0.00, -1.00, 87.5, 5.6)">d</text><text xml:space="preserve" font-family="Helvetica-Light,Helvetica" font-size="18.7" fill="#000000" transform="matrix(1.00, 0.00, -0.00, -1.00, 99.0, 5.6)"> </text><text xml:space="preserve" font-family="Helvetica-Light,Helvetica" font-size="18.7" fill="#000000" transform="matrix(1.00, 0.00, -0.00, -1.00, 104.2, 5.6)">y</text><text xml:space="preserve" font-family="Helvetica-Light,Helvetica" font-size="18.7" fill="#000000" transform="matrix(1.00, 0.00, -0.00, -1.00, 113.5, 5.6)">o</text><text xml:space="preserve" font-family="Helvetica-Light,Helvetica" font-size="18.7" fill="#000000" transform="matrix(1.00, 0.00, -0.00, -1.00, 123.9, 5.6)">u</text><text xml:space="preserve" font-family="Helvetica-Light,Helvetica" font-size="18.7" fill="#000000" transform="matrix(1.00, 0.00, -0.00, -1.00, 134.3, 5.6)"> </text><text xml:space="preserve" font-family="Helvetica-Light,Helvetica" font-size="18.7" fill="#000000" transform="matrix(1.00, 0.00, -0.00, -1.00, 139.5, 5.6)">l</text><text xml:space="preserve" font-family="Helvetica-Light,Helvetica" font-size="18.7" fill="#000000" transform="matrix(1.00, 0.00, -0.00, -1.00, 143.7, 5.6)">i</text><text xml:space="preserve" font-family="Helvetica-Light,Helvetica" font-size="18.7" fill="#000000" transform="matrix(1.00, 0.00, -0.00, -1.00, 147.8, 5.6)">k</text><text xml:space="preserve" font-family="Helvetica-Light,Helvetica" font-size="18.7" fill="#000000" transform="matrix(1.00, 0.00, -0.00, -1.00, 157.2, 5.6)">e</text><text xml:space="preserve" font-family="Helvetica-Light,Helvetica" font-size="18.7" fill="#000000" transform="matrix(1.00, 0.00, -0.00, -1.00, 167.6, 5.6)"> </text><text xml:space="preserve" font-family="Helvetica-Light,Helvetica" font-size="18.7" fill="#000000" transform="matrix(1.00, 0.00, -0.00, -1.00, 172.8, 5.6)">t</text><text xml:space="preserve" font-family="Helvetica-Light,Helvetica" font-size="18.7" fill="#000000" transform="matrix(1.00, 0.00, -0.00, -1.00, 178.0, 5.6)">o</text><text xml:space="preserve" font-family="Helvetica-Light,Helvetica" font-size="18.7" fill="#000000" transform="matrix(1.00, 0.00, -0.00, -1.00, 188.4, 5.6)"> </text><text xml:space="preserve" font-family="Helvetica-Light,Helvetica" font-size="18.7" fill="#000000" transform="matrix(1.00, 0.00, -0.00, -1.00, 193.6, 5.6)">d</text><text xml:space="preserve" font-family="Helvetica-Light,Helvetica" font-size="18.7" fill="#000000" transform="matrix(1.00, 0.00, -0.00, -1.00, 205.1, 5.6)">o</text><text xml:space="preserve" font-family="Helvetica-Light,Helvetica" font-size="18.7" fill="#000000" transform="matrix(1.00, 0.00, -0.00, -1.00, 215.5, 5.6)">?</text></g></svg>