<?xml version="1.0" encoding="UTF-8" standalone="no"?><svg xmlns="http://www.w3.org/2000/svg" xmlns:xlink="http://www.w3.org/1999/xlink" clip-rule="evenodd" stroke-miterlimit="10" viewBox="0 0 340 46"><desc>SVG generated by Keynote</desc><defs></defs><g transform="matrix(1.00, 0.00, -0.00, -1.00, 0.0, 46.0)"><image xlink:href="../../0099E750-43F4-4A1E-80C1-2076B752852F/assets/C61DEBC2F6971CBC715D4874854127E2.png" width="338.00" height="42.00" transform="matrix(1.00, 0.00, -0.00, -1.01, 1.2, 44.3)" opacity="0.50"></image><path d="M 1.0 44.0 L 339.0 44.0 L 339.0 2.0 L 1.0 2.0 Z M 1.2 44.3 " fill="#F38F18"></path><g><clipPath id="clip0x6080024a8280"><path d="M -3.2 1.8 L 343.2 1.8 L 343.2 44.3 L -3.2 44.3 Z M -3.2 1.8 "></path></clipPath><g clip-path="url(#clip0x6080024a8280)"><text xml:space="preserve" font-family="Helvetica-Light,Helvetica" font-size="22.0" fill="#000000" transform="matrix(1.00, 0.00, -0.00, -1.00, 115.0, 15.2)">C</text><text xml:space="preserve" font-family="Helvetica-Light,Helvetica" font-size="22.0" fill="#000000" transform="matrix(1.00, 0.00, -0.00, -1.00, 130.9, 15.2)">o</text><text xml:space="preserve" font-family="Helvetica-Light,Helvetica" font-size="22.0" fill="#000000" transform="matrix(1.00, 0.00, -0.00, -1.00, 143.1, 15.2)">n</text><text xml:space="preserve" font-family="Helvetica-Light,Helvetica" font-size="22.0" fill="#000000" transform="matrix(1.00, 0.00, -0.00, -1.00, 155.3, 15.2)">t</text><text xml:space="preserve" font-family="Helvetica-Light,Helvetica" font-size="22.0" fill="#000000" transform="matrix(1.00, 0.00, -0.00, -1.00, 161.4, 15.2)">a</text><text xml:space="preserve" font-family="Helvetica-Light,Helvetica" font-size="22.0" fill="#000000" transform="matrix(1.00, 0.00, -0.00, -1.00, 173.7, 15.2)">c</text><text xml:space="preserve" font-family="Helvetica-Light,Helvetica" font-size="22.0" fill="#000000" transform="matrix(1.00, 0.00, -0.00, -1.00, 185.9, 15.2)">t</text><text xml:space="preserve" font-family="Helvetica-Light,Helvetica" font-size="22.0" fill="#000000" transform="matrix(1.00, 0.00, -0.00, -1.00, 192.0, 15.2)"> </text><text xml:space="preserve" font-family="Helvetica-Light,Helvetica" font-size="22.0" fill="#000000" transform="matrix(1.00, 0.00, -0.00, -1.00, 198.1, 15.2)">E</text><text xml:space="preserve" font-family="Helvetica-Light,Helvetica" font-size="22.0" fill="#000000" transform="matrix(1.00, 0.00, -0.00, -1.00, 211.6, 15.2)">E</text></g></g></g></svg>