<?xml version="1.0" encoding="UTF-8" standalone="no"?><svg xmlns="http://www.w3.org/2000/svg" xmlns:xlink="http://www.w3.org/1999/xlink" clip-rule="evenodd" stroke-miterlimit="10" viewBox="0 0 340 45"><desc>SVG generated by Keynote</desc><defs></defs><g transform="matrix(1.00, 0.00, -0.00, -1.00, 0.0, 45.0)"><image xlink:href="../../0099E750-43F4-4A1E-80C1-2076B752852F/assets/D647C636C4C69CE21AE4A3076EC5B4BC.png" width="338.00" height="42.00" transform="matrix(1.00, 0.00, -0.00, -1.01, 1.2, 43.8)" opacity="0.50"></image><path d="M 1.0 44.0 L 339.0 44.0 L 339.0 1.0 L 1.0 1.0 Z M 1.2 43.8 " fill="#51A7F9"></path><g><clipPath id="clip0x6000028bcec0"><path d="M -3.2 1.4 L 343.2 1.4 L 343.2 43.8 L -3.2 43.8 Z M -3.2 1.4 "></path></clipPath><g clip-path="url(#clip0x6000028bcec0)"><text xml:space="preserve" font-family="Helvetica-Light,Helvetica" font-size="22.0" fill="#000000" transform="matrix(1.00, 0.00, -0.00, -1.00, 139.4, 14.7)">L</text><text xml:space="preserve" font-family="Helvetica-Light,Helvetica" font-size="22.0" fill="#000000" transform="matrix(1.00, 0.00, -0.00, -1.00, 151.7, 14.7)">o</text><text xml:space="preserve" font-family="Helvetica-Light,Helvetica" font-size="22.0" fill="#000000" transform="matrix(1.00, 0.00, -0.00, -1.00, 163.9, 14.7)">g</text><text xml:space="preserve" font-family="Helvetica-Light,Helvetica" font-size="22.0" fill="#000000" transform="matrix(1.00, 0.00, -0.00, -1.00, 177.3, 14.7)"> </text><text xml:space="preserve" font-family="Helvetica-Light,Helvetica" font-size="22.0" fill="#000000" transform="matrix(1.00, 0.00, -0.00, -1.00, 183.5, 14.7)">i</text><text xml:space="preserve" font-family="Helvetica-Light,Helvetica" font-size="22.0" fill="#000000" transform="matrix(1.00, 0.00, -0.00, -1.00, 188.3, 14.7)">n</text></g></g></g></svg>