<?xml version="1.0" encoding="UTF-8" standalone="no"?><svg xmlns="http://www.w3.org/2000/svg" xmlns:xlink="http://www.w3.org/1999/xlink" clip-rule="evenodd" stroke-miterlimit="10" viewBox="0 0 234 21"><desc>SVG generated by Keynote</desc><defs></defs><g transform="matrix(1.00, 0.00, -0.00, -1.00, 0.0, 21.0)"><text xml:space="preserve" font-family="Helvetica-Light,Helvetica" font-size="18.7" fill="#000000" transform="matrix(1.00, 0.00, -0.00, -1.00, 1.9, 5.8)">A</text><text xml:space="preserve" font-family="Helvetica-Light,Helvetica" font-size="18.7" fill="#000000" transform="matrix(1.00, 0.00, -0.00, -1.00, 14.3, 5.8)">r</text><text xml:space="preserve" font-family="Helvetica-Light,Helvetica" font-size="18.7" fill="#000000" transform="matrix(1.00, 0.00, -0.00, -1.00, 20.2, 5.8)">e</text><text xml:space="preserve" font-family="Helvetica-Light,Helvetica" font-size="18.7" fill="#000000" transform="matrix(1.00, 0.00, -0.00, -1.00, 30.7, 5.8)"> </text><text xml:space="preserve" font-family="Helvetica-Light,Helvetica" font-size="18.7" fill="#000000" transform="matrix(1.00, 0.00, -0.00, -1.00, 35.9, 5.8)">y</text><text xml:space="preserve" font-family="Helvetica-Light,Helvetica" font-size="18.7" fill="#000000" transform="matrix(1.00, 0.00, -0.00, -1.00, 45.2, 5.8)">o</text><text xml:space="preserve" font-family="Helvetica-Light,Helvetica" font-size="18.7" fill="#000000" transform="matrix(1.00, 0.00, -0.00, -1.00, 55.6, 5.8)">u</text><text xml:space="preserve" font-family="Helvetica-Light,Helvetica" font-size="18.7" fill="#000000" transform="matrix(1.00, 0.00, -0.00, -1.00, 66.0, 5.8)"> </text><text xml:space="preserve" font-family="Helvetica-Light,Helvetica" font-size="18.7" fill="#000000" transform="matrix(1.00, 0.00, -0.00, -1.00, 71.2, 5.8)">a</text><text xml:space="preserve" font-family="Helvetica-Light,Helvetica" font-size="18.7" fill="#000000" transform="matrix(1.00, 0.00, -0.00, -1.00, 81.6, 5.8)">l</text><text xml:space="preserve" font-family="Helvetica-Light,Helvetica" font-size="18.7" fill="#000000" transform="matrix(1.00, 0.00, -0.00, -1.00, 85.8, 5.8)">r</text><text xml:space="preserve" font-family="Helvetica-Light,Helvetica" font-size="18.7" fill="#000000" transform="matrix(1.00, 0.00, -0.00, -1.00, 91.7, 5.8)">e</text><text xml:space="preserve" font-family="Helvetica-Light,Helvetica" font-size="18.7" fill="#000000" transform="matrix(1.00, 0.00, -0.00, -1.00, 102.1, 5.8)">a</text><text xml:space="preserve" font-family="Helvetica-Light,Helvetica" font-size="18.7" fill="#000000" transform="matrix(1.00, 0.00, -0.00, -1.00, 112.5, 5.8)">d</text><text xml:space="preserve" font-family="Helvetica-Light,Helvetica" font-size="18.7" fill="#000000" transform="matrix(1.00, 0.00, -0.00, -1.00, 124.0, 5.8)">y</text><text xml:space="preserve" font-family="Helvetica-Light,Helvetica" font-size="18.7" fill="#000000" transform="matrix(1.00, 0.00, -0.00, -1.00, 133.3, 5.8)"> </text><text xml:space="preserve" font-family="Helvetica-Light,Helvetica" font-size="18.7" fill="#000000" transform="matrix(1.00, 0.00, -0.00, -1.00, 138.5, 5.8)">s</text><text xml:space="preserve" font-family="Helvetica-Light,Helvetica" font-size="18.7" fill="#000000" transform="matrix(1.00, 0.00, -0.00, -1.00, 147.9, 5.8)">i</text><text xml:space="preserve" font-family="Helvetica-Light,Helvetica" font-size="18.7" fill="#000000" transform="matrix(1.00, 0.00, -0.00, -1.00, 152.0, 5.8)">g</text><text xml:space="preserve" font-family="Helvetica-Light,Helvetica" font-size="18.7" fill="#000000" transform="matrix(1.00, 0.00, -0.00, -1.00, 163.5, 5.8)">n</text><text xml:space="preserve" font-family="Helvetica-Light,Helvetica" font-size="18.7" fill="#000000" transform="matrix(1.00, 0.00, -0.00, -1.00, 173.9, 5.8)">e</text><text xml:space="preserve" font-family="Helvetica-Light,Helvetica" font-size="18.7" fill="#000000" transform="matrix(1.00, 0.00, -0.00, -1.00, 184.3, 5.8)">d</text><text xml:space="preserve" font-family="Helvetica-Light,Helvetica" font-size="18.7" fill="#000000" transform="matrix(1.00, 0.00, -0.00, -1.00, 195.7, 5.8)"> </text><text xml:space="preserve" font-family="Helvetica-Light,Helvetica" font-size="18.7" fill="#000000" transform="matrix(1.00, 0.00, -0.00, -1.00, 200.9, 5.8)">u</text><text xml:space="preserve" font-family="Helvetica-Light,Helvetica" font-size="18.7" fill="#000000" transform="matrix(1.00, 0.00, -0.00, -1.00, 211.3, 5.8)">p</text><text xml:space="preserve" font-family="Helvetica-Light,Helvetica" font-size="18.7" fill="#000000" transform="matrix(1.00, 0.00, -0.00, -1.00, 222.8, 5.8)">?</text></g></svg>