<?xml version="1.0" encoding="UTF-8" standalone="no"?><svg xmlns="http://www.w3.org/2000/svg" xmlns:xlink="http://www.w3.org/1999/xlink" clip-rule="evenodd" stroke-miterlimit="10" viewBox="0 0 340 58"><desc>SVG generated by Keynote</desc><defs></defs><g transform="matrix(1.00, 0.00, -0.00, -1.00, 0.0, 58.0)"><image xlink:href="../../0099E750-43F4-4A1E-80C1-2076B752852F/assets/25ED189BEDFBA12C929E532FACB285EE.png" width="338.00" height="55.00" transform="matrix(1.00, 0.00, -0.00, -0.99, 1.2, 56.3)" opacity="0.50"></image><path d="M 1.0 56.0 L 339.0 56.0 L 339.0 2.0 L 1.0 2.0 Z M 1.2 56.3 " fill="#6FBF40"></path><g><clipPath id="clip0x6080040bf0e0"><path d="M -3.2 1.6 L 343.2 1.6 L 343.2 56.3 L -3.2 56.3 Z M -3.2 1.6 "></path></clipPath><g clip-path="url(#clip0x6080040bf0e0)"><text xml:space="preserve" font-family="Helvetica-Light,Helvetica" font-size="22.0" fill="#000000" transform="matrix(1.00, 0.00, -0.00, -1.00, 70.0, 21.2)">V</text><text xml:space="preserve" font-family="Helvetica-Light,Helvetica" font-size="22.0" fill="#000000" transform="matrix(1.00, 0.00, -0.00, -1.00, 83.0, 21.2)">i</text><text xml:space="preserve" font-family="Helvetica-Light,Helvetica" font-size="22.0" fill="#000000" transform="matrix(1.00, 0.00, -0.00, -1.00, 87.9, 21.2)">e</text><text xml:space="preserve" font-family="Helvetica-Light,Helvetica" font-size="22.0" fill="#000000" transform="matrix(1.00, 0.00, -0.00, -1.00, 100.1, 21.2)">w</text><text xml:space="preserve" font-family="Helvetica-Light,Helvetica" font-size="22.0" fill="#000000" transform="matrix(1.00, 0.00, -0.00, -1.00, 116.0, 21.2)">/</text><text xml:space="preserve" font-family="Helvetica-Light,Helvetica" font-size="22.0" fill="#000000" transform="matrix(1.00, 0.00, -0.00, -1.00, 122.1, 21.2)">A</text><text xml:space="preserve" font-family="Helvetica-Light,Helvetica" font-size="22.0" fill="#000000" transform="matrix(1.00, 0.00, -0.00, -1.00, 136.8, 21.2)">d</text><text xml:space="preserve" font-family="Helvetica-Light,Helvetica" font-size="22.0" fill="#000000" transform="matrix(1.00, 0.00, -0.00, -1.00, 150.2, 21.2)">d</text><text xml:space="preserve" font-family="Helvetica-Light,Helvetica" font-size="22.0" fill="#000000" transform="matrix(1.00, 0.00, -0.00, -1.00, 163.7, 21.2)"> </text><text xml:space="preserve" font-family="Helvetica-Light,Helvetica" font-size="22.0" fill="#000000" transform="matrix(1.00, 0.00, -0.00, -1.00, 169.8, 21.2)">m</text><text xml:space="preserve" font-family="Helvetica-Light,Helvetica" font-size="22.0" fill="#000000" transform="matrix(1.00, 0.00, -0.00, -1.00, 188.1, 21.2)">y</text><text xml:space="preserve" font-family="Helvetica-Light,Helvetica" font-size="22.0" fill="#000000" transform="matrix(1.00, 0.00, -0.00, -1.00, 199.1, 21.2)"> </text><text xml:space="preserve" font-family="Helvetica-Light,Helvetica" font-size="22.0" fill="#000000" transform="matrix(1.00, 0.00, -0.00, -1.00, 205.2, 21.2)">s</text><text xml:space="preserve" font-family="Helvetica-Light,Helvetica" font-size="22.0" fill="#000000" transform="matrix(1.00, 0.00, -0.00, -1.00, 216.2, 21.2)">c</text><text xml:space="preserve" font-family="Helvetica-Light,Helvetica" font-size="22.0" fill="#000000" transform="matrix(1.00, 0.00, -0.00, -1.00, 228.5, 21.2)">h</text><text xml:space="preserve" font-family="Helvetica-Light,Helvetica" font-size="22.0" fill="#000000" transform="matrix(1.00, 0.00, -0.00, -1.00, 240.7, 21.2)">o</text><text xml:space="preserve" font-family="Helvetica-Light,Helvetica" font-size="22.0" fill="#000000" transform="matrix(1.00, 0.00, -0.00, -1.00, 252.9, 21.2)">o</text><text xml:space="preserve" font-family="Helvetica-Light,Helvetica" font-size="22.0" fill="#000000" transform="matrix(1.00, 0.00, -0.00, -1.00, 265.2, 21.2)">l</text></g></g></g></svg>