<?xml version="1.0" encoding="UTF-8" standalone="no"?><svg xmlns="http://www.w3.org/2000/svg" xmlns:xlink="http://www.w3.org/1999/xlink" clip-rule="evenodd" stroke-miterlimit="10" viewBox="0 0 430 42"><desc>SVG generated by Keynote</desc><defs></defs><g transform="matrix(1.00, 0.00, -0.00, -1.00, 0.0, 42.0)"><text xml:space="preserve" font-family="Helvetica-Light,Helvetica" font-size="34.3" fill="#000000" transform="matrix(1.00, 0.00, -0.00, -1.00, 0.1, 8.8)">i</text><text xml:space="preserve" font-family="Helvetica-Light,Helvetica" font-size="34.3" fill="#000000" transform="matrix(1.00, 0.00, -0.00, -1.00, 7.7, 8.8)">n</text><text xml:space="preserve" font-family="Helvetica-Light,Helvetica" font-size="34.3" fill="#000000" transform="matrix(1.00, 0.00, -0.00, -1.00, 26.8, 8.8)">f</text><text xml:space="preserve" font-family="Helvetica-Light,Helvetica" font-size="34.3" fill="#000000" transform="matrix(1.00, 0.00, -0.00, -1.00, 36.3, 8.8)">o</text><text xml:space="preserve" font-family="Helvetica-Light,Helvetica" font-size="34.3" fill="#000000" transform="matrix(1.00, 0.00, -0.00, -1.00, 55.4, 8.8)">@</text><text xml:space="preserve" font-family="Helvetica-Light,Helvetica" font-size="34.3" fill="#000000" transform="matrix(1.00, 0.00, -0.00, -1.00, 82.8, 8.8)">e</text><text xml:space="preserve" font-family="Helvetica-Light,Helvetica" font-size="34.3" fill="#000000" transform="matrix(1.00, 0.00, -0.00, -1.00, 101.9, 8.8)">q</text><text xml:space="preserve" font-family="Helvetica-Light,Helvetica" font-size="34.3" fill="#000000" transform="matrix(1.00, 0.00, -0.00, -1.00, 122.9, 8.8)">u</text><text xml:space="preserve" font-family="Helvetica-Light,Helvetica" font-size="34.3" fill="#000000" transform="matrix(1.00, 0.00, -0.00, -1.00, 141.9, 8.8)">a</text><text xml:space="preserve" font-family="Helvetica-Light,Helvetica" font-size="34.3" fill="#000000" transform="matrix(1.00, 0.00, -0.00, -1.00, 161.0, 8.8)">l</text><text xml:space="preserve" font-family="Helvetica-Light,Helvetica" font-size="34.3" fill="#000000" transform="matrix(1.00, 0.00, -0.00, -1.00, 168.6, 8.8)">e</text><text xml:space="preserve" font-family="Helvetica-Light,Helvetica" font-size="34.3" fill="#000000" transform="matrix(1.00, 0.00, -0.00, -1.00, 187.7, 8.8)">d</text><text xml:space="preserve" font-family="Helvetica-Light,Helvetica" font-size="34.3" fill="#000000" transform="matrix(1.00, 0.00, -0.00, -1.00, 208.6, 8.8)">u</text><text xml:space="preserve" font-family="Helvetica-Light,Helvetica" font-size="34.3" fill="#000000" transform="matrix(1.00, 0.00, -0.00, -1.00, 227.7, 8.8)">c</text><text xml:space="preserve" font-family="Helvetica-Light,Helvetica" font-size="34.3" fill="#000000" transform="matrix(1.00, 0.00, -0.00, -1.00, 246.8, 8.8)">a</text><text xml:space="preserve" font-family="Helvetica-Light,Helvetica" font-size="34.3" fill="#000000" transform="matrix(1.00, 0.00, -0.00, -1.00, 265.9, 8.8)">t</text><text xml:space="preserve" font-family="Helvetica-Light,Helvetica" font-size="34.3" fill="#000000" transform="matrix(1.00, 0.00, -0.00, -1.00, 275.4, 8.8)">i</text><text xml:space="preserve" font-family="Helvetica-Light,Helvetica" font-size="34.3" fill="#000000" transform="matrix(1.00, 0.00, -0.00, -1.00, 283.0, 8.8)">o</text><text xml:space="preserve" font-family="Helvetica-Light,Helvetica" font-size="34.3" fill="#000000" transform="matrix(1.00, 0.00, -0.00, -1.00, 302.1, 8.8)">n</text><text xml:space="preserve" font-family="Helvetica-Light,Helvetica" font-size="34.3" fill="#000000" transform="matrix(1.00, 0.00, -0.00, -1.00, 321.2, 8.8)">.</text><text xml:space="preserve" font-family="Helvetica-Light,Helvetica" font-size="34.3" fill="#000000" transform="matrix(1.00, 0.00, -0.00, -1.00, 330.7, 8.8)">o</text><text xml:space="preserve" font-family="Helvetica-Light,Helvetica" font-size="34.3" fill="#000000" transform="matrix(1.00, 0.00, -0.00, -1.00, 349.8, 8.8)">r</text><text xml:space="preserve" font-family="Helvetica-Light,Helvetica" font-size="34.3" fill="#000000" transform="matrix(1.00, 0.00, -0.00, -1.00, 361.2, 8.8)">g</text><text xml:space="preserve" font-family="Helvetica-Light,Helvetica" font-size="34.3" fill="#000000" transform="matrix(1.00, 0.00, -0.00, -1.00, 382.1, 8.8)">.</text><text xml:space="preserve" font-family="Helvetica-Light,Helvetica" font-size="34.3" fill="#000000" transform="matrix(1.00, 0.00, -0.00, -1.00, 391.7, 8.8)">z</text><text xml:space="preserve" font-family="Helvetica-Light,Helvetica" font-size="34.3" fill="#000000" transform="matrix(1.00, 0.00, -0.00, -1.00, 408.8, 8.8)">a</text><g><clipPath id="clip0x6000068b4ca0"><path d="M -0.9 4.4 L 427.9 4.4 L 427.9 8.1 L -0.9 8.1 Z M -0.9 4.4 "></path></clipPath><g clip-path="url(#clip0x6000068b4ca0)"><path d="M 16.0 692.8 L 443.8 692.8 " fill="none" stroke="#000000" stroke-width="1.72" transform="matrix(1.00, 0.00, 0.00, -1.00, -15.9, 699.1)"></path></g></g></g></svg>