<?xml version="1.0" encoding="UTF-8" standalone="no"?><svg xmlns="http://www.w3.org/2000/svg" xmlns:xlink="http://www.w3.org/1999/xlink" clip-rule="evenodd" stroke-miterlimit="10" viewBox="0 0 172 37"><desc>SVG generated by Keynote</desc><defs></defs><g transform="matrix(1.00, 0.00, -0.00, -1.00, 0.0, 37.0)"><text xml:space="preserve" font-family="Helvetica-Light,Helvetica" font-size="34.3" fill="#000000" transform="matrix(1.00, 0.00, -0.00, -1.00, 0.2, 8.8)">C</text><text xml:space="preserve" font-family="Helvetica-Light,Helvetica" font-size="34.3" fill="#000000" transform="matrix(1.00, 0.00, -0.00, -1.00, 25.0, 8.8)">a</text><text xml:space="preserve" font-family="Helvetica-Light,Helvetica" font-size="34.3" fill="#000000" transform="matrix(1.00, 0.00, -0.00, -1.00, 44.1, 8.8)">p</text><text xml:space="preserve" font-family="Helvetica-Light,Helvetica" font-size="34.3" fill="#000000" transform="matrix(1.00, 0.00, -0.00, -1.00, 65.0, 8.8)">e</text><text xml:space="preserve" font-family="Helvetica-Light,Helvetica" font-size="34.3" fill="#000000" transform="matrix(1.00, 0.00, -0.00, -1.00, 84.1, 8.8)"> </text><text xml:space="preserve" font-family="Helvetica-Light,Helvetica" font-size="34.3" fill="#000000" transform="matrix(1.00, 0.00, -0.00, -1.00, 93.6, 8.8)">T</text><text xml:space="preserve" font-family="Helvetica-Light,Helvetica" font-size="34.3" fill="#000000" transform="matrix(1.00, 0.00, -0.00, -1.00, 108.9, 8.8)">o</text><text xml:space="preserve" font-family="Helvetica-Light,Helvetica" font-size="34.3" fill="#000000" transform="matrix(1.00, 0.00, -0.00, -1.00, 127.9, 8.8)">w</text><text xml:space="preserve" font-family="Helvetica-Light,Helvetica" font-size="34.3" fill="#000000" transform="matrix(1.00, 0.00, -0.00, -1.00, 152.7, 8.8)">n</text></g></svg>