<?xml version="1.0" encoding="UTF-8" standalone="no"?><svg xmlns="http://www.w3.org/2000/svg" xmlns:xlink="http://www.w3.org/1999/xlink" clip-rule="evenodd" stroke-miterlimit="10" viewBox="0 0 25 25"><desc>SVG generated by Keynote</desc><defs></defs><g transform="matrix(1.00, 0.00, -0.00, -1.00, 0.0, 25.0)"><path d="M 20.1 19.9 C 24.2 15.9 24.2 9.3 20.1 5.2 C 16.0 1.1 9.4 1.1 5.4 5.2 C 1.3 9.3 1.3 15.9 5.4 19.9 C 9.4 24.0 16.0 24.0 20.1 19.9 Z M 20.1 19.9 " fill="#6FBF40"></path><path d="M 17.8 3.1 C 21.8 7.1 21.8 13.7 17.8 17.8 C 13.7 21.8 7.1 21.8 3.1 17.8 C -1.0 13.7 -1.0 7.1 3.1 3.1 C 7.1 -1.0 13.7 -1.0 17.8 3.1 Z M 17.8 3.1 " fill="none" stroke="#000000" stroke-width="1.00" transform="matrix(1.00, 0.00, 0.00, -1.00, 2.3, 23.0)"></path></g></svg>