<?xml version="1.0" encoding="UTF-8" standalone="no"?><svg xmlns="http://www.w3.org/2000/svg" xmlns:xlink="http://www.w3.org/1999/xlink" clip-rule="evenodd" stroke-miterlimit="10" viewBox="0 0 63 62"><desc>SVG generated by Keynote</desc><defs></defs><g transform="matrix(1.00, 0.00, -0.00, -1.00, 0.0, 62.0)"><g><clipPath id="clip0x600002cb28a0"><path d="M 0.8 0.8 L 62.9 0.8 L 62.9 61.2 L 0.8 61.2 Z M 0.8 0.8 "></path></clipPath><g clip-path="url(#clip0x600002cb28a0)"><image xlink:href="../../0099E750-43F4-4A1E-80C1-2076B752852F/assets/D295C5E147627F980B2AE76242016B41.png" width="60.00" height="58.00" transform="matrix(1.00, 0.00, -0.00, -1.01, 1.8, 60.2)" opacity="0.50"></image><path d="M 53.1 51.6 C 64.9 40.2 64.9 21.8 53.1 10.4 C 41.4 -1.0 22.3 -1.0 10.6 10.4 C -1.2 21.8 -1.2 40.2 10.6 51.6 C 22.3 63.0 41.4 63.0 53.1 51.6 Z M 53.1 51.6 " fill="#EB5C56"></path></g></g><g><clipPath id="clip0x600002eaf780"><path d="M 14.3 14.0 L 49.4 14.0 L 49.4 48.0 L 14.3 48.0 Z M 14.3 14.0 "></path></clipPath><g clip-path="url(#clip0x600002eaf780)"><image xlink:href="../../0099E750-43F4-4A1E-80C1-2076B752852F/assets/E1ED57FC234FF4F27B1C781EF218B3E8.png" width="192.00" height="186.00" transform="matrix(0.18, 0.00, -0.00, -0.18, 14.3, 48.0)"></image></g></g></g></svg>