<?xml version="1.0" encoding="UTF-8" standalone="no"?><svg xmlns="http://www.w3.org/2000/svg" xmlns:xlink="http://www.w3.org/1999/xlink" clip-rule="evenodd" stroke-miterlimit="10" viewBox="0 0 350 45"><desc>SVG generated by Keynote</desc><defs></defs><g transform="matrix(1.00, 0.00, -0.00, -1.00, 0.0, 45.0)"><path d="M 1.0 44.0 L 349.0 44.0 L 349.0 1.0 L 1.0 1.0 Z M 1.3 43.7 " fill="#51A7F9"></path><g><clipPath id="clip0x600002cb5ea0"><path d="M -3.1 1.3 L 353.1 1.3 L 353.1 43.7 L -3.1 43.7 Z M -3.1 1.3 "></path></clipPath><g clip-path="url(#clip0x600002cb5ea0)"><text xml:space="preserve" font-family="Helvetica-Light,Helvetica" font-size="22.0" fill="#000000" transform="matrix(1.00, 0.00, -0.00, -1.00, 144.4, 14.6)">L</text><text xml:space="preserve" font-family="Helvetica-Light,Helvetica" font-size="22.0" fill="#000000" transform="matrix(1.00, 0.00, -0.00, -1.00, 156.7, 14.6)">o</text><text xml:space="preserve" font-family="Helvetica-Light,Helvetica" font-size="22.0" fill="#000000" transform="matrix(1.00, 0.00, -0.00, -1.00, 168.9, 14.6)">g</text><text xml:space="preserve" font-family="Helvetica-Light,Helvetica" font-size="22.0" fill="#000000" transform="matrix(1.00, 0.00, -0.00, -1.00, 182.3, 14.6)"> </text><text xml:space="preserve" font-family="Helvetica-Light,Helvetica" font-size="22.0" fill="#000000" transform="matrix(1.00, 0.00, -0.00, -1.00, 188.5, 14.6)">i</text><text xml:space="preserve" font-family="Helvetica-Light,Helvetica" font-size="22.0" fill="#000000" transform="matrix(1.00, 0.00, -0.00, -1.00, 193.3, 14.6)">n</text></g></g></g></svg>