<?xml version="1.0" encoding="UTF-8" standalone="no"?><svg xmlns="http://www.w3.org/2000/svg" xmlns:xlink="http://www.w3.org/1999/xlink" clip-rule="evenodd" stroke-miterlimit="10" viewBox="0 0 288 57"><desc>SVG generated by Keynote</desc><defs></defs><g transform="matrix(1.00, 0.00, -0.00, -1.00, 0.0, 57.0)"><path d="M 1.5 55.5 L 286.5 55.5 L 286.5 1.5 L 1.5 1.5 Z M 1.8 55.8 " fill="#FEFFFF"></path><path d="M -0.3 0.3 L 284.7 0.3 L 284.7 54.3 L -0.3 54.3 Z M 0.0 0.0 " fill="none" stroke="#000000" stroke-width="0.25" transform="matrix(1.00, 0.00, 0.00, -1.00, 1.8, 55.8)"></path><g><clipPath id="clip0x600005ab4c40"><path d="M -1.6 2.4 L 290.0 2.4 L 290.0 54.8 L -1.6 54.8 Z M -1.6 2.4 "></path></clipPath><g clip-path="url(#clip0x600005ab4c40)"><text xml:space="preserve" font-family="Helvetica-Light,Helvetica" font-size="22.0" fill="#A6AAA8" transform="matrix(1.00, 0.00, -0.00, -1.00, 3.9, 20.8)">S</text><text xml:space="preserve" font-family="Helvetica-Light,Helvetica" font-size="22.0" fill="#A6AAA8" transform="matrix(1.00, 0.00, -0.00, -1.00, 17.4, 20.8)">e</text><text xml:space="preserve" font-family="Helvetica-Light,Helvetica" font-size="22.0" fill="#A6AAA8" transform="matrix(1.00, 0.00, -0.00, -1.00, 29.6, 20.8)">l</text><text xml:space="preserve" font-family="Helvetica-Light,Helvetica" font-size="22.0" fill="#A6AAA8" transform="matrix(1.00, 0.00, -0.00, -1.00, 34.5, 20.8)">e</text><text xml:space="preserve" font-family="Helvetica-Light,Helvetica" font-size="22.0" fill="#A6AAA8" transform="matrix(1.00, 0.00, -0.00, -1.00, 46.7, 20.8)">c</text><text xml:space="preserve" font-family="Helvetica-Light,Helvetica" font-size="22.0" fill="#A6AAA8" transform="matrix(1.00, 0.00, -0.00, -1.00, 59.0, 20.8)">t</text></g></g></g></svg>