<?xml version="1.0" encoding="UTF-8" standalone="no"?><svg xmlns="http://www.w3.org/2000/svg" xmlns:xlink="http://www.w3.org/1999/xlink" clip-rule="evenodd" stroke-miterlimit="10" viewBox="0 0 297 138"><desc>SVG generated by Keynote</desc><defs></defs><g transform="matrix(1.00, 0.00, -0.00, -1.00, 0.0, 138.0)"><image xlink:href="C0CE1E5BFDCAB96CDE0A17784E21D304.png" width="294.00" height="135.00" transform="matrix(1.00, 0.00, -0.00, -1.00, 2.0, 137.0)"></image><text xml:space="preserve" font-family="Helvetica-Light,Helvetica" font-size="42.0" fill="#F5D327" transform="matrix(1.00, 0.00, -0.00, -1.00, 47.4, 58.2)">S</text><text xml:space="preserve" font-family="Helvetica-Light,Helvetica" font-size="42.0" fill="#F5D327" transform="matrix(1.00, 0.00, -0.00, -1.00, 73.1, 58.2)">t</text><text xml:space="preserve" font-family="Helvetica-Light,Helvetica" font-size="42.0" fill="#F5D327" transform="matrix(1.00, 0.00, -0.00, -1.00, 84.8, 58.2)">e</text><text xml:space="preserve" font-family="Helvetica-Light,Helvetica" font-size="42.0" fill="#F5D327" transform="matrix(1.00, 0.00, -0.00, -1.00, 108.1, 58.2)">p</text><text xml:space="preserve" font-family="Helvetica-Light,Helvetica" font-size="42.0" fill="#F5D327" transform="matrix(1.00, 0.00, -0.00, -1.00, 133.8, 58.2)"> </text><text xml:space="preserve" font-family="Helvetica-Light,Helvetica" font-size="42.0" fill="#F5D327" transform="matrix(1.00, 0.00, -0.00, -1.00, 145.5, 58.2)">4</text><text xml:space="preserve" font-family="Helvetica-Light,Helvetica" font-size="42.0" fill="#F5D327" transform="matrix(1.00, 0.00, -0.00, -1.00, 168.8, 58.2)"> </text><text xml:space="preserve" font-family="Helvetica-Light,Helvetica" font-size="42.0" fill="#F5D327" transform="matrix(1.00, 0.00, -0.00, -1.00, 180.5, 58.2)">o</text><text xml:space="preserve" font-family="Helvetica-Light,Helvetica" font-size="42.0" fill="#F5D327" transform="matrix(1.00, 0.00, -0.00, -1.00, 203.9, 58.2)">f</text><text xml:space="preserve" font-family="Helvetica-Light,Helvetica" font-size="42.0" fill="#F5D327" transform="matrix(1.00, 0.00, -0.00, -1.00, 215.5, 58.2)"> </text><text xml:space="preserve" font-family="Helvetica-Light,Helvetica" font-size="42.0" fill="#F5D327" transform="matrix(1.00, 0.00, -0.00, -1.00, 227.2, 58.2)">5</text></g></svg>