<?xml version="1.0" encoding="UTF-8" standalone="no"?><svg xmlns="http://www.w3.org/2000/svg" xmlns:xlink="http://www.w3.org/1999/xlink" clip-rule="evenodd" stroke-miterlimit="10" viewBox="0 0 176 58"><desc>SVG generated by Keynote</desc><defs></defs><g transform="matrix(1.00, 0.00, -0.00, -1.00, 0.0, 58.0)"><path d="M 2.0 56.0 L 175.0 56.0 L 175.0 2.0 L 2.0 2.0 Z M 1.8 56.2 " fill="#F5D327"></path><g><clipPath id="clip0x6000064a1560"><path d="M -2.6 1.6 L 179.0 1.6 L 179.0 56.2 L -2.6 56.2 Z M -2.6 1.6 "></path></clipPath><g clip-path="url(#clip0x6000064a1560)"><text xml:space="preserve" font-family="Helvetica-Light,Helvetica" font-size="22.0" fill="#000000" transform="matrix(1.00, 0.00, -0.00, -1.00, 46.2, 21.2)">P</text><text xml:space="preserve" font-family="Helvetica-Light,Helvetica" font-size="22.0" fill="#000000" transform="matrix(1.00, 0.00, -0.00, -1.00, 59.7, 21.2)">r</text><text xml:space="preserve" font-family="Helvetica-Light,Helvetica" font-size="22.0" fill="#000000" transform="matrix(1.00, 0.00, -0.00, -1.00, 66.6, 21.2)">e</text><text xml:space="preserve" font-family="Helvetica-Light,Helvetica" font-size="22.0" fill="#000000" transform="matrix(1.00, 0.00, -0.00, -1.00, 78.8, 21.2)">v</text><text xml:space="preserve" font-family="Helvetica-Light,Helvetica" font-size="22.0" fill="#000000" transform="matrix(1.00, 0.00, -0.00, -1.00, 89.8, 21.2)">i</text><text xml:space="preserve" font-family="Helvetica-Light,Helvetica" font-size="22.0" fill="#000000" transform="matrix(1.00, 0.00, -0.00, -1.00, 94.7, 21.2)">o</text><text xml:space="preserve" font-family="Helvetica-Light,Helvetica" font-size="22.0" fill="#000000" transform="matrix(1.00, 0.00, -0.00, -1.00, 106.9, 21.2)">u</text><text xml:space="preserve" font-family="Helvetica-Light,Helvetica" font-size="22.0" fill="#000000" transform="matrix(1.00, 0.00, -0.00, -1.00, 119.2, 21.2)">s</text></g></g></g></svg>