<?xml version="1.0" encoding="UTF-8" standalone="no"?><svg xmlns="http://www.w3.org/2000/svg" xmlns:xlink="http://www.w3.org/1999/xlink" clip-rule="evenodd" stroke-miterlimit="10" viewBox="0 0 108 105"><desc>SVG generated by Keynote</desc><defs></defs><g transform="matrix(1.00, 0.00, -0.00, -1.00, 0.0, 105.0)"><g><clipPath id="clip0x608004ebd520"><path d="M 0.8 0.5 L 107.6 0.5 L 107.6 104.1 L 0.8 104.1 Z M 0.8 0.5 "></path></clipPath><g clip-path="url(#clip0x608004ebd520)"><image xlink:href="../../2022055F-E678-455C-BEE7-B3CA49069353/assets/BD3D0E5C54932140575DD3431431D1BA.png" width="105.00" height="102.00" transform="matrix(1.00, 0.00, -0.00, -1.00, 1.8, 103.1)" opacity="0.50"></image><path d="M 91.2 88.2 C 111.7 68.4 111.7 36.2 91.2 16.4 C 70.8 -3.5 37.6 -3.5 17.1 16.4 C -3.4 36.2 -3.4 68.4 17.1 88.2 C 37.6 108.1 70.8 108.1 91.2 88.2 Z M 91.2 88.2 " fill="#F5D327"></path></g></g><g><clipPath id="clip0x6000062bede0"><path d="M -1.1 1.5 L 109.5 1.5 L 109.5 103.1 L -1.1 103.1 Z M -1.1 1.5 "></path></clipPath><g clip-path="url(#clip0x6000062bede0)"><text xml:space="preserve" font-family="Helvetica-Light,Helvetica" font-size="32.0" fill="#000000" transform="matrix(1.00, 0.00, -0.00, -1.00, 33.7, 40.5)">N</text><text xml:space="preserve" font-family="Helvetica-Light,Helvetica" font-size="32.0" fill="#000000" transform="matrix(1.00, 0.00, -0.00, -1.00, 56.8, 40.5)">o</text></g></g></g></svg>