<?xml version="1.0" encoding="UTF-8" standalone="no"?><svg xmlns="http://www.w3.org/2000/svg" xmlns:xlink="http://www.w3.org/1999/xlink" clip-rule="evenodd" stroke-miterlimit="10" viewBox="0 0 59 58"><desc>SVG generated by Keynote</desc><defs></defs><g transform="matrix(1.00, 0.00, -0.00, -1.00, 0.0, 58.0)"><g><clipPath id="clip0x600003ab4e20"><path d="M 0.4 0.8 L 58.9 0.8 L 58.9 57.5 L 0.4 57.5 Z M 0.4 0.8 "></path></clipPath><g clip-path="url(#clip0x600003ab4e20)"><image xlink:href="../../0099E750-43F4-4A1E-80C1-2076B752852F/assets/AD5B303DD78D188DBA2CDEF96225C7DE.png" width="56.00" height="55.00" transform="matrix(1.01, 0.00, -0.00, -0.99, 1.4, 56.5)" opacity="0.50"></image><path d="M 49.6 48.5 C 60.6 37.8 60.6 20.5 49.6 9.9 C 38.6 -0.8 20.7 -0.8 9.7 9.9 C -1.3 20.5 -1.3 37.8 9.7 48.5 C 20.7 59.2 38.6 59.2 49.6 48.5 Z M 49.6 48.5 " fill="#EB5C56"></path></g></g><g><clipPath id="clip0x600003ab5480"><path d="M 13.2 13.2 L 46.1 13.2 L 46.1 45.1 L 13.2 45.1 Z M 13.2 13.2 "></path></clipPath><g clip-path="url(#clip0x600003ab5480)"><image xlink:href="../../0099E750-43F4-4A1E-80C1-2076B752852F/assets/E1ED57FC234FF4F27B1C781EF218B3E8.png" width="192.00" height="186.00" transform="matrix(0.17, 0.00, -0.00, -0.17, 13.2, 45.1)"></image></g></g></g></svg>